# xmcd
#
# Track frame offsets:
#	150
#	14032
#	34033
#	49339
#	68516
#	81884
#	91104
#	107101
#	121804
#	134631
#	144925
#	163838
#	179787
#	195108
#	214383
#	225040
#
# Disc length: 3211 seconds
#
# Revision: 0
# Processed by: cddbd v1.5.2PL0 Copyright (c) Steve Scherf et al.
# Submitted via: audiograbber 1.83.01
#
DISCID=d80c8910
DTITLE=Ronna, Brad, and Tammy Sue - Ronna, Brad, and Tammy Sue - Volume 2
DYEAR=2008
DGENRE=Country
TTITLE0=Ain't Misbehavin'
TTITLE1=The Three Bells
TTITLE2=Fishin' In The Dark
TTITLE3=Where've You Been
TTITLE4=Drivin' My Life Away
TTITLE5=Don't Fence Me In
TTITLE6=Til A Tear Becomes A Rose
TTITLE7=How's The World Treating You
TTITLE8=White Sport Coat
TTITLE9=Wake Up Little Susie
TTITLE10=Ghost In This House
TTITLE11=Desert Skies
TTITLE12=Cryin' Time
TTITLE13=Whiskey Lullaby
TTITLE14=New Orleans
TTITLE15=In The Garden
EXTD=
EXTT0=
EXTT1=
EXTT2=
EXTT3=
EXTT4=
EXTT5=
EXTT6=
EXTT7=
EXTT8=
EXTT9=
EXTT10=
EXTT11=
EXTT12=
EXTT13=
EXTT14=
EXTT15=
PLAYORDER=
